<svg xmlns="http://www.w3.org/2000/svg" width="115" height="20.716" viewBox="0 0 115 20.716">
  <g id="cevt_blue_Logo" data-name="cevt blue Logo" transform="translate(587 105.803)">
    <g id="aceR4e" transform="translate(-587 -105.803)">
      <g id="Group_1" data-name="Group 1">
        <path id="Path_2" data-name="Path 2" d="M-280.89-83.308c-.632-.1-1.269-.179-1.9-.31a4.748,4.748,0,0,1-3.2-1.981,5.047,5.047,0,0,1-.8-2.774c-.023-3.514-.04-7.03,0-10.544a4.733,4.733,0,0,1,4.641-4.8c.772-.072,1.551-.111,2.326-.113q7.466-.015,14.932,0c.732,0,.732,0,.732.709,0,.815,0,1.63,0,2.444,0,.614-.032.648-.661.648q-5.715,0-11.43,0c-1.513,0-1.637.123-1.638,1.6,0,.719.028,1.439-.01,2.156-.024.451.141.571.577.569,2.8-.014,5.609-.007,8.414-.007,1.248,0,2.5.013,3.745-.007.468-.008.625.168.614.621-.024.91,0,1.821,0,2.732,0,.592-.022.612-.641.612-4.021,0-8.041.008-12.062-.01-.486,0-.653.117-.634.611.035.925,0,1.853,0,2.779,0,.949.257,1.188,1.267,1.187l9.1-.009c.908,0,1.816-.007,2.724,0,.566.006.641.09.643.642,0,.879.018,1.758-.013,2.636-.007.2-.182.4-.28.6Z" transform="translate(315.497 104.024)" fill="#005087"/>
        <path id="Path_3" data-name="Path 3" d="M-587-98.849c.064-.323.123-.647.192-.968a4.459,4.459,0,0,1,3.907-3.793,14.034,14.034,0,0,1,2.412-.217c6.031-.018,12.063-.01,18.094-.009.843,0,.847,0,.847.822,0,.735,0,1.47,0,2.2,0,.7-.073.775-.774.775q-7.126,0-14.252,0a3.91,3.91,0,0,0-.677.039.8.8,0,0,0-.709.792c-.006.079-.005.16-.006.239q-.027,5.247-.053,10.494c0,1.072.26,1.329,1.346,1.329h14.3c.819,0,.825.007.825.794,0,.767.027,1.535-.017,2.3a2.292,2.292,0,0,1-.329.731h-19.073c-.153-.036-.3-.083-.459-.108-.6-.1-1.222-.143-1.814-.288a4.349,4.349,0,0,1-3.555-3.664c-.067-.373-.137-.746-.205-1.119Z" transform="translate(587 104.03)" fill="#005087"/>
        <path id="Path_4" data-name="Path 4" d="M7.766-105.8c.218.335.032.6-.147.875L2.713-97.5c-2.537,3.843-5.084,7.68-7.6,11.536a1.457,1.457,0,0,1-1.409.773c-2.059-.044-4.119-.031-6.178,0a1.008,1.008,0,0,1-.982-.538q-3.629-5.874-7.278-11.736-2.233-3.6-4.469-7.193c-.1-.163-.208-.325-.3-.495-.166-.319-.028-.485.3-.525a3.649,3.649,0,0,1,.437-.011c2.676,0,5.352.028,8.027,0a2.134,2.134,0,0,1,2.053,1.133c2.6,4.254,5.258,8.478,7.9,12.712.108.173.224.342.384.587.362-.521.683-.974,1-1.433q4.148-6.116,8.3-12.226a5.639,5.639,0,0,1,.973-.885Z" transform="translate(79.098 105.803)" fill="#005087"/>
        <path id="Path_5" data-name="Path 5" d="M342.49-85.087a3.748,3.748,0,0,1-.186-.816q-.018-7.566-.01-15.132c0-.684,0-.682-.686-.682q-3.814,0-7.628,0c-.755,0-.807-.052-.809-.776,0-.878-.019-1.756.011-2.633a2.259,2.259,0,0,1,.258-.677H360.1a3.121,3.121,0,0,1,.189.714c.022.878.009,1.757.007,2.636,0,.692-.039.734-.738.735q-3.818,0-7.636,0c-.738,0-.739,0-.739.733q0,7.526-.012,15.052a3.5,3.5,0,0,1-.219.846Z" transform="translate(-245.306 105.803)" fill="#005087"/>
      </g>
    </g>
  </g>
</svg>
