<svg id="cevt_logo" data-name="cevt logo" xmlns="http://www.w3.org/2000/svg" width="186.677" height="33.628" viewBox="0 0 186.677 33.628">
  <g id="aceR4e" transform="translate(0 0)">
    <g id="Group_1" data-name="Group 1">
      <path id="Path_2" data-name="Path 2" d="M-277.341-70.511c-1.011-.165-2.031-.29-3.032-.5A7.583,7.583,0,0,1-285.5-74.23a8.284,8.284,0,0,1-1.273-4.5c-.036-5.706-.064-11.412,0-17.118.05-4.367,2.967-7.37,7.426-7.789,1.236-.116,2.481-.181,3.722-.183q11.944-.024,23.888-.008c1.172,0,1.172,0,1.171,1.151,0,1.323,0,2.646,0,3.968,0,1-.051,1.052-1.058,1.052q-9.143.005-18.286,0c-2.42,0-2.619.2-2.62,2.6,0,1.167.044,2.337-.016,3.5-.038.732.226.927.922.924,4.487-.023,8.974-.011,13.461-.011,2,0,3.995.021,5.991-.012.748-.012,1,.273.982,1.008-.038,1.477,0,2.956,0,4.435,0,.961-.035.993-1.025.993-6.432,0-12.865.014-19.3-.017-.778,0-1.044.19-1.014.992.057,1.5,0,3.008,0,4.512,0,1.541.412,1.929,2.027,1.927l14.551-.015c1.452,0,2.905-.011,4.357,0,.9.01,1.025.146,1.028,1.043,0,1.427.03,2.854-.021,4.279a2.909,2.909,0,0,1-.448.979Z" transform="translate(333.543 104.139)" fill="#fff"/>
      <path id="Path_3" data-name="Path 3" d="M-587-95.738c.1-.524.2-1.05.307-1.572a7.183,7.183,0,0,1,6.251-6.158,22.136,22.136,0,0,1,3.859-.352c9.649-.028,19.3-.016,28.948-.015,1.349,0,1.355.007,1.356,1.335,0,1.193,0,2.386,0,3.579,0,1.141-.117,1.258-1.238,1.258q-11.4,0-22.8,0a6.164,6.164,0,0,0-1.084.064,1.288,1.288,0,0,0-1.134,1.285c-.01.129-.009.259-.01.389q-.044,8.518-.086,17.037c-.007,1.74.416,2.158,2.154,2.158q11.439,0,22.878,0c1.31,0,1.32.011,1.32,1.289,0,1.245.043,2.493-.027,3.734a3.746,3.746,0,0,1-.527,1.187h-30.514c-.245-.059-.487-.134-.734-.175-.968-.157-1.954-.233-2.9-.467a7.014,7.014,0,0,1-5.687-5.948c-.108-.606-.219-1.211-.328-1.817Z" transform="translate(587 104.145)" fill="#fff"/>
      <path id="Path_4" data-name="Path 4" d="M27.762-105.8c.348.544.051.982-.235,1.421l-7.85,12.065c-4.059,6.239-8.134,12.468-12.159,18.728a2.325,2.325,0,0,1-2.253,1.255c-3.293-.071-6.59-.05-9.884-.008a1.608,1.608,0,0,1-1.571-.874Q-12-82.75-17.833-92.267q-3.573-5.84-7.15-11.678c-.162-.265-.332-.527-.474-.8-.266-.519-.045-.788.486-.853a5.756,5.756,0,0,1,.7-.018c4.281.005,8.562.045,12.842,0a3.4,3.4,0,0,1,3.284,1.84C-3.978-96.876.267-90.018,4.487-83.144c.173.281.358.556.614.953.579-.845,1.093-1.581,1.592-2.327q6.636-9.929,13.286-19.848a9.069,9.069,0,0,1,1.557-1.437Z" transform="translate(112.976 105.803)" fill="#fff"/>
      <path id="Path_5" data-name="Path 5" d="M348.084-72.175a6.161,6.161,0,0,1-.3-1.325q-.028-12.282-.016-24.564c0-1.11,0-1.108-1.1-1.107q-6.1,0-12.2,0c-1.208,0-1.292-.085-1.295-1.259,0-1.425-.031-2.851.018-4.275a3.7,3.7,0,0,1,.413-1.1h42.657a5.125,5.125,0,0,1,.3,1.158c.036,1.426.014,2.853.012,4.279,0,1.123-.062,1.192-1.181,1.193q-6.108.007-12.217,0c-1.18,0-1.182-.006-1.183,1.19q0,12.216-.018,24.433a5.746,5.746,0,0,1-.35,1.374Z" transform="translate(-189.909 105.803)" fill="#fff"/>
    </g>
  </g>
</svg>
