<svg xmlns="http://www.w3.org/2000/svg" width="24" height="26" viewBox="0 0 24 26">
  <g id="Group_17" data-name="Group 17" transform="translate(-17.379)">
    <g id="Group_14" data-name="Group 14" transform="translate(17.379 3.946)">
      <g id="Group_13" data-name="Group 13" transform="translate(0)">
        <g id="Group_12" data-name="Group 12">
          <path id="Path_2553" data-name="Path 2553" d="M307.311,175.13l-2.057-.074-.446,11.9,2.057.073Z" transform="translate(-290.387 -170.015)" fill="#0eb2e6"/>
          <rect id="Rectangle_29" data-name="Rectangle 29" width="2.059" height="11.897" transform="translate(10.971 5.078)" fill="#0eb2e6"/>
          <path id="Path_2554" data-name="Path 2554" d="M160.923,186.948l-.446-11.9-2.057.074.446,11.9Z" transform="translate(-151.343 -170.009)" fill="#0eb2e6"/>
          <path id="Path_2555" data-name="Path 2555" d="M17.379,76.867V78.9h2.1l1.667,19.094a1.011,1.011,0,0,0,1,.927h14.42a1.011,1.011,0,0,0,1-.928L39.244,78.9h2.135V76.867ZM35.648,96.888H23.075L21.505,78.9H37.219Z" transform="translate(-17.379 -76.867)" fill="#0eb2e6"/>
        </g>
      </g>
    </g>
    <g id="Group_16" data-name="Group 16" transform="translate(24.301)">
      <g id="Group_15" data-name="Group 15">
        <path id="Path_2556" data-name="Path 2556" d="M165.517,0h-6.725a1.718,1.718,0,0,0-1.716,1.716v3.26h2.059V2.059h6.039V4.975h2.059V1.716A1.718,1.718,0,0,0,165.517,0Z" transform="translate(-157.076)" fill="#0eb2e6"/>
      </g>
    </g>
  </g>
</svg>
