<svg xmlns="http://www.w3.org/2000/svg" width="160" height="160" viewBox="0 0 160 160">
  <g id="logo_scan" data-name="logo scan" transform="translate(-962.696 -521.597)">
    <g id="Group_8" data-name="Group 8" transform="translate(962.696 521.597)">
      <g id="Group_7" data-name="Group 7" transform="translate(0 0)">
        <path id="Path_2542" data-name="Path 2542" d="M1270.124,829.028h-25.532v10.151h35.683V803.49h-10.149Z" transform="translate(-1120.295 -679.18)" fill="#fff"/>
        <path id="Path_2543" data-name="Path 2543" d="M972.849,803.494H962.7v35.689h35.683V829.03H972.849Z" transform="translate(-962.698 -679.183)" fill="#fff"/>
        <path id="Path_2544" data-name="Path 2544" d="M972.847,531.75h25.532V521.6H962.7V557.29h10.149Z" transform="translate(-962.696 -521.599)" fill="#fff"/>
        <path id="Path_2545" data-name="Path 2545" d="M1244.592,521.6V531.75h25.532v25.536h10.149V521.6Z" transform="translate(-1120.295 -521.597)" fill="#fff"/>
      </g>
    </g>
    <g id="Group_9" data-name="Group 9" transform="translate(962.696 589.314)">
      <path id="Path_2546" data-name="Path 2546" d="M962.7,680.806a2.961,2.961,0,0,1,.27-1.214q1.821-3.574,9.642-3.574h21.24v5.193l-18.407.068q-2.293.067-2.293,1.146v1.618a.531.531,0,0,0,.067.337q.337.945,2.629,1.079h8.227a18.337,18.337,0,0,1,5.933.877q3.844,1.214,3.843,3.911v4.923q0,2.9-3.978,4.248a21.054,21.054,0,0,1-6.473.877H962.764v-5.26h18.205q2.428-.405,2.428-1.416v-1.754q0-1.011-2.225-1.146h-8.7q-5.259,0-8.159-2.158a3.364,3.364,0,0,1-1.618-2.63Z" transform="translate(-962.696 -675.749)" fill="#fff"/>
      <path id="Path_2547" data-name="Path 2547" d="M1052.808,694.9V681.548a4.381,4.381,0,0,1,2.462-4.35q2.46-1.179,8.934-1.18h20.363v5.193h-18.879q-2.023.136-2.427,1.079v10.655a1.836,1.836,0,0,0,.944,1.821,5.594,5.594,0,0,0,2.158.27h18.2v5.26h-21.914a17.339,17.339,0,0,1-3.641-.4Q1052.807,698.677,1052.808,694.9Z" transform="translate(-1013.148 -675.749)" fill="#fff"/>
      <path id="Path_2548" data-name="Path 2548" d="M1135.125,699.942l13.418-21.31q2.023-3.237,8.226-3.237,6.136,0,8.159,3.237l13.418,21.31h-10.923l-3.3-5.26h-14.767l-3.3,5.26Zm17.329-10.183h8.563l-4.922-7.891Z" transform="translate(-1059.105 -675.395)" fill="#fff"/>
      <path id="Path_2549" data-name="Path 2549" d="M1246.284,699.942v-19.49a4.165,4.165,0,0,1,2.461-3.642,12.22,12.22,0,0,1,6.169-1.416,22.71,22.71,0,0,1,3.439.269q4.314.81,5.8,3.709L1271.5,693.4V675.664h9.912v20.1q0,1.889-2.428,3.169a13.455,13.455,0,0,1-6.068,1.349q-7.013.134-9.238-4.113l-7.417-13.96v17.736Z" transform="translate(-1121.413 -675.395)" fill="#fff"/>
    </g>
  </g>
</svg>
