<svg xmlns="http://www.w3.org/2000/svg" width="87.198" height="91.105" viewBox="0 0 87.198 91.105">
  <g id="Group_19" data-name="Group 19" transform="translate(-231.583 -664.895)">
    <g id="scan" transform="translate(-77.5 595.813)">
      <path id="Path_7" data-name="Path 7" d="M329.047,70.5H310.5V89.047" fill="none" stroke="#0eb2e6" stroke-miterlimit="10" stroke-width="2.835"/>
      <path id="Path_8" data-name="Path 8" d="M481.567,89.047V70.5H463.02" transform="translate(-86.703)" fill="none" stroke="#0eb2e6" stroke-miterlimit="10" stroke-width="2.835"/>
      <path id="Path_9" data-name="Path 9" d="M463.02,166.236h18.547V147.689" transform="translate(-86.703 -43.88)" fill="none" stroke="#0eb2e6" stroke-miterlimit="10" stroke-width="2.835"/>
      <path id="Path_10" data-name="Path 10" d="M310.5,147.689v18.547h18.547" transform="translate(0 -43.88)" fill="none" stroke="#0eb2e6" stroke-miterlimit="10" stroke-width="2.835"/>
      <rect id="Rectangle_12" data-name="Rectangle 12" width="1.94" height="30.3" transform="translate(322.285 81.782)" fill="#02aee5"/>
      <rect id="Rectangle_13" data-name="Rectangle 13" width="1.027" height="22.37" transform="translate(327.533 81.782)" fill="#02aee5"/>
      <rect id="Rectangle_14" data-name="Rectangle 14" width="1.94" height="22.37" transform="translate(331.868 81.782)" fill="#02aee5"/>
      <rect id="Rectangle_15" data-name="Rectangle 15" width="1.94" height="22.37" transform="translate(337.343 81.782)" fill="#02aee5"/>
      <rect id="Rectangle_17" data-name="Rectangle 17" width="1.027" height="22.37" transform="translate(341.907 81.782)" fill="#02aee5"/>
      <rect id="Rectangle_18" data-name="Rectangle 18" width="1.94" height="30.113" transform="translate(345.557 81.782)" fill="#02aee5"/>
      <rect id="Rectangle_19" data-name="Rectangle 19" width="1.027" height="22.37" transform="translate(350.805 81.782)" fill="#02aee5"/>
      <rect id="Rectangle_20" data-name="Rectangle 20" width="1.027" height="22.37" transform="translate(355.596 81.782)" fill="#02aee5"/>
      <rect id="Rectangle_21" data-name="Rectangle 21" width="2.91" height="22.37" transform="translate(359.446 81.782)" fill="#02aee5"/>
      <rect id="Rectangle_22" data-name="Rectangle 22" width="1.027" height="30.113" transform="translate(365.179 81.782)" fill="#02aee5"/>
      <rect id="Rectangle_23" data-name="Rectangle 23" width="1.027" height="22.37" transform="translate(369.97 81.782)" fill="#02aee5"/>
      <rect id="Rectangle_24" data-name="Rectangle 24" width="1.027" height="22.37" transform="translate(374.761 81.782)" fill="#02aee5"/>
      <rect id="Rectangle_25" data-name="Rectangle 25" width="1.94" height="30.3" transform="translate(379.096 81.782)" fill="#02aee5"/>
    </g>
    <text id="Scan_" data-name="Scan " transform="translate(252 751)" fill="#fff" font-size="20" font-family="Siri-Regular, Siri"><tspan x="0" y="0">Scan </tspan></text>
  </g>
</svg>
