<svg xmlns="http://www.w3.org/2000/svg" width="86.139" height="86.138" viewBox="0 0 86.139 86.138">
  <g id="success" transform="translate(1 1)">
    <path id="Path_2557" data-name="Path 2557" d="M42.069,0A42.069,42.069,0,1,0,84.138,42.069,42.117,42.117,0,0,0,42.069,0Zm0,80.9A38.833,38.833,0,1,1,80.9,42.069,38.878,38.878,0,0,1,42.069,80.9Z" fill="#fff" stroke="#fff" stroke-width="2"/>
    <path id="Path_2558" data-name="Path 2558" d="M54.477,15.544,29.609,43.52,14.628,31.535a1.618,1.618,0,0,0-2.021,2.527l16.18,12.944a1.62,1.62,0,0,0,2.222-.189L56.9,17.693a1.618,1.618,0,0,0-2.421-2.149Z" transform="translate(7.416 9.27)" fill="#fff" stroke="#fff" stroke-width="2"/>
  </g>
</svg>
